<svg width="59" height="59" viewBox="0 0 59 59" fill="none" xmlns="http://www.w3.org/2000/svg">
<path d="M29.4778 24.5795C32.744 24.5795 35.3917 22.0289 35.3917 18.8825C35.3917 15.7362 32.744 13.1855 29.4778 13.1855C26.2117 13.1855 23.564 15.7362 23.564 18.8825C23.564 22.0289 26.2117 24.5795 29.4778 24.5795Z" fill="#6C4197"/>
<path d="M35.3132 9.27337L50.6105 17.7809V41.2525L35.3132 49.722V58.4954L58.4956 45.6202V13.3752L35.3132 0.5V9.27337Z" fill="#6C4197"/>
<path d="M23.4853 49.6443L8.38517 41.2508V17.7791L23.4853 9.34759V0.574219L0.5 13.3735V45.6185L23.4853 58.4177V49.6443Z" fill="#6C4197"/>
<path d="M43.1982 32.44L35.313 28.0723V58.4942L43.1982 50.8982V32.44Z" fill="#6C4197"/>
<path d="M15.6001 50.8984L23.4853 58.4944V28.1484L15.6001 32.5161V50.8984Z" fill="#6C4197"/>
</svg>
